<?xml version="1.0" encoding="utf-8"?>
<!-- Generator: Adobe Illustrator 26.1.0, SVG Export Plug-In . SVG Version: 6.00 Build 0)  -->
<svg version="1.1" id="Слой_1" xmlns="http://www.w3.org/2000/svg" xmlns:xlink="http://www.w3.org/1999/xlink" x="0px" y="0px"
	 viewBox="0 0 539.2 402.9" style="enable-background:new 0 0 539.2 402.9;" xml:space="preserve">
<style type="text/css">
	.st0{fill:#3BFF40;}
	.st1{fill:#FF0000;}
	.st2{fill:#FFF42C;}
</style>
<g>
	<path class="st0" d="M203.5,48.8c0,0.7-0.1,1.8-0.3,3.5c-0.2,1.7-0.4,3.5-0.8,5.6c-0.3,2.1-0.8,4.2-1.3,6.4
		c-0.6,2.2-1.3,4.3-2.1,6.1s-1.8,3.4-3,4.6c-1.2,1.2-2.4,1.8-3.8,1.8h-77.2l-10.7,52.8h65.5c1.6,0,2.7,0.6,3.3,1.7
		c0.7,1.1,1,2.7,1,4.7c0,0.8-0.1,2-0.3,3.6c-0.2,1.6-0.4,3.5-0.8,5.5c-0.3,2.1-0.8,4.2-1.3,6.3c-0.6,2.1-1.3,4.1-2.1,5.9
		c-0.8,1.8-1.8,3.2-2.9,4.3c-1.1,1.1-2.3,1.7-3.7,1.7H97.9l-12.4,61h78.2c1.3,0,2.3,0.6,3,1.8c0.7,1.2,1,2.9,1,5.1
		c0,0.8-0.1,2-0.2,3.7c-0.1,1.7-0.4,3.5-0.8,5.6c-0.4,2.1-0.9,4.2-1.4,6.3c-0.6,2.1-1.3,4.1-2.1,5.9c-0.8,1.8-1.8,3.3-2.9,4.4
		c-1.1,1.1-2.4,1.7-3.8,1.7H47.9c-1.8,0-3.4-0.3-4.8-0.8c-1.4-0.5-2.6-1.3-3.6-2.5c-0.9-1.2-1.6-2.6-1.9-4.3
		c-0.3-1.7-0.3-3.8,0.2-6.3L75.5,56.3c1-4.9,3-8.4,6-10.6c3-2.2,6.4-3.3,10-3.3h107.7C202.1,42.5,203.5,44.6,203.5,48.8z"/>
	<path class="st1" d="M407.3,60.2c-0.5-1.5-1.3-2.8-2.6-3.9c-1.3-1.2-3.9-2.8-7.8-4.9c-3.9-2.1-8.7-4.1-14.5-5.9
		c-5.7-1.8-12.2-3.4-19.5-4.7c-7.2-1.3-14.9-1.9-23.1-1.9c-14.7,0-28.3,1.8-40.6,5.4c-12.4,3.6-23.6,8.7-33.7,15.1
		c-10.1,6.5-18.9,14.1-26.6,23c-7.6,8.9-14,18.5-19.2,28.9c-5.2,10.4-9.1,21.4-11.7,33c-2.6,11.6-3.9,23.4-3.9,35.4
		c0,13.4,2.1,25.2,6.2,35.4c4.1,10.3,10.2,18.9,18.1,26c8,7.1,17.9,12.4,29.7,16c11.8,3.6,25.5,5.4,40.9,5.4
		c8.2,0,16.3-0.6,24.2-1.8c7.9-1.2,15.1-2.7,21.5-4.5c6.4-1.8,11.8-3.6,16.3-5.4c4.5-1.8,7.3-3.4,8.5-4.8c1.1-1.2,2-2.6,2.7-4.1
		c0.7-1.5,1.2-3.3,1.7-5.4l17.4-86.6c0.2-1.2,0.4-2.3,0.4-3.3l-4.5-4.5l-1.1-1.1l2.9-3c-1.6-1.5-3.8-2.3-6.7-2.3h-73.1
		c-1.2,0-2.3,0.5-3.3,1.5c-1,1-1.9,2.3-2.8,3.8c-0.8,1.6-1.5,3.4-2.1,5.4c-0.6,2-1,4-1.4,5.9c-0.4,2-0.7,3.8-0.9,5.6
		c-0.2,1.8-0.3,3.2-0.3,4.3c0,2.3,0.4,4,1.2,5.1c0.8,1.1,1.8,1.6,3.2,1.6h40.8l-10,50c-4.6,2.2-9.5,3.9-14.9,5
		c-5.4,1.1-10.8,1.7-16.2,1.7c-8.1,0-15.5-1.1-22.1-3.3c-6.6-2.2-12.2-5.5-16.8-9.9c-4.6-4.3-8.2-9.8-10.6-16.2
		c-2.5-6.5-3.7-14-3.7-22.6c0-7.7,0.8-15.5,2.5-23.4c1.7-7.9,4.2-15.5,7.6-22.9c3.4-7.4,7.6-14.2,12.5-20.6c5-6.4,10.7-12,17.2-16.7
		c6.5-4.7,13.7-8.5,21.6-11.2c7.9-2.7,16.6-4.1,26.1-4.1c9.5,0,17.7,1,24.6,2.8c6.9,1.9,12.8,4,17.5,6.4c4.8,2.3,8.7,4.5,11.7,6.4
		c3,1.9,5.3,2.8,7,2.8c1,0,2-0.5,2.9-1.6c1-1.1,1.8-2.4,2.6-4.1c0.8-1.7,1.5-3.5,2-5.6s1-4.1,1.4-6.2c0.4-2.1,0.7-4,0.8-5.8
		c0.2-1.8,0.2-3.2,0.2-4.3C408,63.4,407.7,61.6,407.3,60.2z M390.2,139.2l-1.8,1.8l0,0l3.5,3.5c-0.1-2-0.6-3.7-1.5-5
		C390.4,139.3,390.3,139.3,390.2,139.2z"/>
</g>
<path class="st2" d="M436.8,114.1L436.8,114.1c0,109.6-88.9,198.5-198.5,198.5c-36.7,0-71-9.9-100.5-27.3H61.4
	c44.8,46.2,107.5,75,176.9,75c136,0,246.2-110.2,246.2-246.2v0H436.8z"/>
<g>
	
		<rect x="461.3" y="70.7" transform="matrix(0.7071 -0.7071 0.7071 0.7071 56.0075 373.4166)" class="st2" width="34.9" height="96.8"/>
	<polygon class="st2" points="481.6,97.2 413.1,165.7 393.7,146.3 391.9,144.4 388.4,141 388.4,141 390.2,139.2 390.4,139 
		432.2,97.2 456.9,72.5 	"/>
</g>
</svg>
